<svg width="125" height="73" viewBox="0 0 125 73" fill="none" xmlns="http://www.w3.org/2000/svg">
<path d="M5.77131 73L35.9205 13.3409V12.8438H0.799716V0.272725H51.8295V13.0213L21.6449 73H5.77131ZM118.618 73H103.277V12.8438H92.9073C89.948 12.8438 87.4859 13.2817 85.521 14.1577C83.5797 15.0099 82.1237 16.2647 81.1531 17.9219C80.1824 19.5791 79.6971 21.6151 79.6971 24.0298C79.6971 26.4209 80.1824 28.4214 81.1531 30.0312C82.1237 31.6411 83.5797 32.8485 85.521 33.6534C87.4622 34.4583 89.9007 34.8608 92.8363 34.8608H109.527V47.2188H90.3505C84.7871 47.2188 80.0285 46.2955 76.0749 44.4489C72.1213 42.6023 69.1029 39.9508 67.0195 36.4943C64.9362 33.0142 63.8945 28.8594 63.8945 24.0298C63.8945 19.224 64.9125 15.0455 66.9485 11.4943C69.0082 7.91951 71.9793 5.16146 75.8619 3.22017C79.7681 1.25521 84.4674 0.272725 89.9599 0.272725H118.618V73ZM79.3775 39.9034H95.9613L78.2766 73H61.3022L79.3775 39.9034Z" fill="#DE6953"/>
</svg>
